<?xml version="1.0" encoding="utf-8"?>
<!-- Generator: Adobe Illustrator 18.1.1, SVG Export Plug-In . SVG Version: 6.00 Build 0)  -->
<svg version="1.1" id="_x33__Logo" xmlns="http://www.w3.org/2000/svg" xmlns:xlink="http://www.w3.org/1999/xlink" x="0px" y="0px"
	 viewBox="0 0 374.9 545.3" enable-background="new 0 0 374.9 545.3" xml:space="preserve">
<g id="Three.co.uk">
	<g id="_x2E_co.uk">
		<rect x="187" y="531.3" fill="#1D1D1B" width="10" height="9.8"/>
		<path fill="#1D1D1B" d="M218.1,514.1c-1.4,0-2.7,0.3-3.6,1c-1,0.7-1.8,1.5-2.4,2.5c-0.6,1-1,2.2-1.3,3.4c-0.3,1.2-0.4,2.5-0.4,3.7
			c0,1.2,0.1,2.4,0.4,3.6c0.3,1.2,0.7,2.3,1.2,3.4c0.6,1,1.4,1.8,2.3,2.4c1,0.6,2.2,1,3.6,1c2.2,0,3.8-0.6,5-1.8
			c1.2-1.2,1.9-2.8,2.2-4.9h8.7c-0.6,4.4-2.3,7.7-5.1,10c-2.8,2.3-6.4,3.4-10.8,3.4c-2.5,0-4.7-0.4-6.8-1.2c-2.1-0.8-3.8-2-5.2-3.5
			c-1.4-1.5-2.6-3.3-3.4-5.3c-0.8-2.1-1.2-4.3-1.2-6.8c0-2.5,0.4-4.9,1.1-7.1c0.7-2.2,1.8-4.1,3.3-5.7c1.4-1.6,3.2-2.8,5.3-3.7
			c2.1-0.9,4.5-1.3,7.1-1.3c2,0,3.8,0.3,5.6,0.8c1.8,0.5,3.4,1.3,4.8,2.3c1.4,1,2.6,2.3,3.5,3.9c0.9,1.6,1.4,3.4,1.5,5.5h-8.9
			C224.2,516,222,514.1,218.1,514.1"/>
		<path fill="#1D1D1B" d="M237.9,517.5c0.8-2.1,1.9-4,3.4-5.5c1.5-1.5,3.3-2.7,5.4-3.5c2.1-0.8,4.4-1.2,7-1.2c2.6,0,4.9,0.4,7,1.2
			c2.1,0.8,3.9,2,5.4,3.5c1.5,1.5,2.6,3.3,3.4,5.5c0.8,2.1,1.2,4.5,1.2,7.2c0,2.6-0.4,5-1.2,7.1c-0.8,2.1-1.9,3.9-3.4,5.4
			c-1.5,1.5-3.3,2.7-5.4,3.5c-2.1,0.8-4.4,1.2-7,1.2c-2.6,0-4.9-0.4-7-1.2c-2.1-0.8-3.9-2-5.4-3.5c-1.5-1.5-2.6-3.3-3.4-5.4
			c-0.8-2.1-1.2-4.5-1.2-7.1C236.7,522,237.1,519.6,237.9,517.5 M246.1,528.5c0.3,1.3,0.7,2.4,1.3,3.4c0.6,1,1.4,1.8,2.4,2.4
			c1,0.6,2.3,0.9,3.8,0.9c1.5,0,2.8-0.3,3.9-0.9c1-0.6,1.9-1.4,2.5-2.4c0.6-1,1.1-2.1,1.3-3.4c0.3-1.3,0.4-2.5,0.4-3.8
			c0-1.3-0.1-2.6-0.4-3.9c-0.2-1.3-0.7-2.4-1.3-3.4c-0.6-1-1.4-1.8-2.5-2.4c-1-0.6-2.3-0.9-3.9-0.9c-1.5,0-2.8,0.3-3.8,0.9
			c-1,0.6-1.8,1.4-2.4,2.4c-0.6,1-1.1,2.1-1.3,3.4c-0.2,1.3-0.4,2.6-0.4,3.9C245.8,526,245.9,527.3,246.1,528.5z"/>
		<rect x="274.9" y="531.3" fill="#1D1D1B" width="10" height="9.8"/>
		<path fill="#1D1D1B" d="M312.5,541.1v-4.6h-0.2c-1.2,1.9-2.6,3.3-4.5,4.1c-1.8,0.9-3.7,1.3-5.6,1.3c-2.4,0-4.4-0.3-6-1
			c-1.5-0.6-2.8-1.5-3.7-2.7c-0.9-1.2-1.5-2.6-1.9-4.3c-0.4-1.7-0.5-3.5-0.5-5.6v-20.3h9v18.6c0,2.7,0.4,4.7,1.3,6.1
			c0.8,1.3,2.4,2,4.5,2c2.5,0,4.2-0.7,5.3-2.2c1.1-1.5,1.7-3.9,1.7-7.2v-17.3h9v32.9H312.5"/>
		<polyline fill="#1D1D1B" points="334.6,495.6 334.6,520 346,508.2 356.7,508.2 344.3,520.3 358.1,541.1 347.1,541.1 338.1,526.4 
			334.6,529.8 334.6,541.1 325.5,541.1 325.5,495.6 334.6,495.6 		"/>
	</g>
	<g id="Three">
		<polyline fill="#1D1D1B" points="16.9,504 16.9,495.6 54.2,495.6 54.2,504 40.5,504 40.5,541.1 30.5,541.1 30.5,504 16.9,504 		
			"/>
		<path fill="#1D1D1B" d="M66.3,495.6v17.1h0.2c1.1-1.9,2.6-3.3,4.4-4.2c1.8-0.9,3.5-1.3,5.2-1.3c2.4,0,4.4,0.3,6,1
			c1.5,0.7,2.8,1.6,3.7,2.7c0.9,1.2,1.5,2.6,1.9,4.3c0.4,1.7,0.5,3.5,0.5,5.6v20.3h-9.1v-18.6c0-2.7-0.4-4.7-1.3-6.1
			c-0.9-1.3-2.4-2-4.5-2c-2.5,0-4.2,0.7-5.3,2.2c-1.1,1.5-1.7,3.9-1.7,7.2v17.3h-9.1v-45.5H66.3"/>
		<path fill="#1D1D1B" d="M101,508.2v6.1h0.1c0.4-1,1-2,1.7-2.8c0.7-0.9,1.5-1.6,2.5-2.2c0.9-0.6,1.9-1.1,3-1.4
			c1.1-0.3,2.2-0.5,3.3-0.5c0.6,0,1.2,0.1,2,0.3v8.4c-0.4-0.1-0.9-0.2-1.5-0.2c-0.6-0.1-1.2-0.1-1.7-0.1c-1.7,0-3.1,0.3-4.2,0.8
			c-1.1,0.6-2.1,1.3-2.8,2.3c-0.7,1-1.2,2.1-1.5,3.3c-0.3,1.3-0.4,2.7-0.4,4.1v14.8h-9v-32.9H101"/>
		<path fill="#1D1D1B" d="M125.6,533.2c1.4,1.3,3.3,2,5.9,2c1.8,0,3.4-0.5,4.7-1.4c1.3-0.9,2.1-1.9,2.4-2.9h8
			c-1.3,3.9-3.2,6.8-5.9,8.5c-2.6,1.7-5.8,2.5-9.6,2.5c-2.6,0-4.9-0.4-7-1.2c-2.1-0.8-3.8-2-5.3-3.5c-1.5-1.5-2.6-3.4-3.4-5.5
			c-0.8-2.1-1.2-4.5-1.2-7c0-2.5,0.4-4.8,1.2-6.9c0.8-2.1,2-4,3.4-5.5c1.5-1.5,3.3-2.8,5.3-3.7c2.1-0.9,4.3-1.3,6.8-1.3
			c2.8,0,5.2,0.5,7.3,1.6c2.1,1.1,3.8,2.5,5.1,4.4c1.3,1.8,2.3,3.9,2.9,6.2c0.6,2.3,0.8,4.8,0.6,7.3h-23.8
			C123.5,529.8,124.3,531.9,125.6,533.2 M135.8,515.9c-1.1-1.2-2.7-1.8-4.9-1.8c-1.5,0-2.7,0.2-3.6,0.7c-0.9,0.5-1.7,1.1-2.3,1.8
			c-0.6,0.7-1,1.5-1.2,2.3c-0.2,0.8-0.4,1.5-0.4,2.2h14.7C137.7,518.8,136.9,517.1,135.8,515.9z"/>
		<path fill="#1D1D1B" d="M161,533.2c1.4,1.3,3.3,2,5.9,2c1.8,0,3.4-0.5,4.7-1.4c1.3-0.9,2.1-1.9,2.4-2.9h8
			c-1.3,3.9-3.2,6.8-5.9,8.5c-2.6,1.7-5.8,2.5-9.5,2.5c-2.6,0-4.9-0.4-7-1.2c-2.1-0.8-3.8-2-5.3-3.5c-1.4-1.5-2.5-3.4-3.3-5.5
			c-0.8-2.1-1.2-4.5-1.2-7c0-2.5,0.4-4.8,1.2-6.9c0.8-2.1,2-4,3.4-5.5c1.5-1.5,3.3-2.8,5.3-3.7c2.1-0.9,4.3-1.3,6.9-1.3
			c2.8,0,5.2,0.5,7.3,1.6c2.1,1.1,3.8,2.5,5.1,4.4c1.4,1.8,2.3,3.9,2.9,6.2c0.6,2.3,0.8,4.8,0.6,7.3h-23.8
			C158.9,529.8,159.6,531.9,161,533.2 M171.2,515.9c-1.1-1.2-2.7-1.8-4.9-1.8c-1.4,0-2.6,0.2-3.6,0.7c-1,0.5-1.7,1.1-2.3,1.8
			c-0.6,0.7-1,1.5-1.2,2.3c-0.2,0.8-0.4,1.5-0.4,2.2h14.7C173,518.8,172.3,517.1,171.2,515.9z"/>
	</g>
</g>
<g id="_x33_">
	<path fill="#1D1D1B" d="M310.9,201.3c-3.9-2.8-8.5-6.2-10.5-8.3c1.1-1.9,3.1-4.9,4.8-7.3c10.2-14.8,29.4-42.8,29.4-82.9
		c0-23-8.4-47.9-28.6-67.1c-20.2-19.2-52.2-32.5-99.1-32.5C162.4,3.3,112.3,18,69,43.6C49.5,55.1,33.5,67.5,22.4,79.4
		C11.2,91.3,4.7,102.7,4.7,112.5c0,4.8,1.8,9.1,5.3,12.6c6.3,6.2,17.5,9.1,31.9,10.6c14.3,1.5,31.8,1.5,50.6,1.5h3.4
		c29,0,49.4,0.8,62.5,2.7c6.5,1,11.2,2.2,14.2,3.7c3,1.5,3.9,3,3.9,4.6c0.1,0.7-0.7,2.2-2.5,4c-6.3,6.3-22.7,15.6-37.4,25.8
		c-7.4,5.1-14.4,10.5-19.6,16c-5.2,5.5-8.7,11.1-8.8,16.9v0.3c0.1,7.4,4,13.3,9.9,17.8c18,13.8,55.2,17.4,74.6,20.9
		c12,2.2,18.4,6.5,21.8,11.1c3.4,4.7,4.1,9.9,4.1,14.3c0,16.7-6.2,31.4-17.3,41.5c-9.9,9.1-21.8,14.9-39.1,15c-0.7,0-1.4,0-2.1,0
		c0.4-3.3,0.6-6.6,0.6-9.7c0-19.6-7.7-36-20.8-47.4c-13.1-11.4-31.5-17.8-52.9-17.8c-26.4,0-47.5,10.9-62,27.2
		C10.2,300.4,2.3,321.8,2.3,343c0,33.3,15.4,66.8,45.3,91.9c30,25.1,74.5,41.8,132.8,41.8c46.2,0,92.8-15.3,128.1-41.8
		c29.2-22,64.2-62.1,64.1-127.9C372.6,246.8,332.2,217,310.9,201.3 M127,205.6c6.5-6.4,19.8-15.6,29.7-21.9
		c9.8-6.3,18.5-11.9,24.9-17.5c6.4-5.6,10.6-11.3,10.6-17.9c0-5.2-2-9.9-5.8-13.7c-6.8-6.7-18.9-9.8-33.9-11.5
		c-15-1.6-33.1-1.7-51.8-1.7c-1.7,0-3.4,0-5.1,0c-15.4,0-27.7-0.2-37.5-0.6c13.6-5.3,29.4-13.7,46.6-22.9
		c27.9-14.9,58.8-31.5,87.9-38.8c-6.7,7.6-11.1,16.3-11.1,23.8c0,1.8,0.6,3.8,2,5.3c1.4,1.5,3.7,2.5,6.7,2.5c5.2,0,11-2,17.7-4.1
		c9.1-3,19.6-6.4,31.2-6.4c10.1,0,21,2.6,32.6,10.4c-7.7,0.5-14,2.8-18,5.9c-4.3,3.3-5.3,7.1-5.3,9.7c0,4.3,3,7.5,6.7,11.8
		c6,6.7,13.8,15.6,13.8,29.8c0,10.4-4,21.5-9.9,29.9c0-0.6,0-1.2,0-1.8c0-7.2-1.6-15.4-5.6-20c-2.4-2.7-5.6-4.3-9.2-4.2
		c-6.1,0.1-11.4,4.7-19.2,11.2c-5.6,4.6-12.5,10.4-21.2,15.9c-36.7,23.1-56.4,32.1-70.4,33.2C128.4,212,120.7,211.9,127,205.6z
		 M160.6,347.1c20.7,0,37.9-6.3,51.2-18.5c14.2-13,22.3-32.4,22.3-53.2c0-10-3.1-18.3-8.9-24.7c30.8,7.4,62.8,23.2,80.6,47
		c-8-2.6-13.6-3.3-19.2-3.3c-5.8,0.1-10.3,6.1-10.3,12.9c0,3.6,1.4,7.7,3,12.7c2.6,7.9,5.9,18.1,5.9,30.3c0,11.2-2.8,24.1-11.6,38.5
		c-0.3-11.6-3.4-20.9-7.4-25.9c-3.2-3.8-6.5-4.8-8.8-4.8c-3.7,0-6.6,1.8-8.9,4.6c-2.4,2.8-4.5,6.5-6.8,10.8
		c-8.5,15.2-21.8,39.5-63.6,52c3.8-6.5,5.7-13.2,5.7-18.5c0-2.1-0.3-4-1-5.7c-1.3-3.2-4.1-5.1-7.2-5.1c0,0-0.1,0-0.1,0
		c-4.6,0.2-9.9,1.6-16,3.4c-9.6,2.7-21.3,6-34.1,6c-13.3,0-27.8-3.5-42.7-14.8c5.2-0.8,9.8-2.6,13.1-5.5c2.7-2.4,4.5-5.4,4.5-8.6
		c-0.1-4.9-3.9-8.2-8.3-12.2c-6.4-6-14-13.1-14-25c0-3.4,0.6-7.3,2.2-11.7c1.4,3.8,3.3,7.2,5.9,10.1c3.9,4.2,8.6,6.8,13.1,6.8
		c4.8,0.1,7.6-2.2,8.8-5.1c1.2-2.9,1.2-6.2,1.2-8.8c0-3,1.4-5.8,3.6-7.9c2.2-2.1,5.2-3.4,8.3-3.4c7,0,12.3,3.9,16.1,9.7
		c3.7,5.8,5.6,13.6,5.6,20.9c0,4.5-0.7,8.9-2.2,12.4l-1.6,3.9l3.3-2.6c6.3-4.9,11.2-11.8,13.5-16.8
		C157.3,347.1,159,347.1,160.6,347.1z M24.1,117.2c-2.2-1.3-3.5-2.6-3.5-4.7c0-5.7,5.4-14.8,15.4-24.7c29.9-30,99.2-68.6,170.9-68.6
		c36.3,0,65.8,9,85.4,25.7c17,14.5,26.3,35.1,26.4,57.9c0,35.1-16.5,59.3-26.6,73.9c-5.1,7.4-8.2,11.8-8.2,16.7
		c0,3.9,1.9,7.2,4.9,10.3c3.1,3.2,7.4,6.3,12.7,10.2c20.9,15.5,55.2,40.7,55.3,92.9c0,59.3-31.3,95.3-57.7,115.2
		c-32.5,24.5-75.8,38.6-118.6,38.6C73.5,460.7,18.2,401.3,18.2,343c0-17.3,6.5-34.9,18.3-48.2c11.8-13.3,28.9-22.2,50.4-22.2h0
		c12,0,27.1,2.8,39.2,10.8c12,8.1,21,21.2,21,42.5c0,0.6,0,1.2,0,1.9c-1.1-2.4-2.6-5-4.6-7.6c-4.3-5.3-11.3-10-21.4-10
		c-11.5,0-21.2,9.4-21.3,20.7c0,2.1-0.3,3.4-0.5,4c-0.1,0.2-0.2,0.4-0.2,0.4c-2.8-0.1-6.1-2-8.8-5.8c-2.7-3.9-4.7-9.6-4.7-16.9
		c0-1.5,0.1-3,0.2-4.6l0.4-3.4l-2.3,2.6c-10.8,12-14.7,22.9-14.7,32.3c0,15.3,10.3,26.3,16.5,32c1.1,1,2.5,2.3,3.6,3.4
		c0.5,0.6,1,1.1,1.3,1.5c0.2,0.2,0.3,0.4,0.3,0.5c0,0,0,0.1,0.1,0.1c-0.1,0.6-1.2,2-4.1,3.2c-3.1,1.3-8,2.3-15,2.3
		c-2.4,0-5.1-0.1-8.1-0.4l-2.7-0.3l1.7,2.1c20.5,24.4,43.1,31.1,62.7,31.1c14.5,0,27.3-3.6,36.6-6.2c3.9-1.1,8.3-2.8,10.7-2.7
		c1,0,1.4,0.2,1.6,0.5c0.2,0.3,0.4,0.9,0.4,1.8c0,2.8-1.7,8-4.5,13.3c-2.8,5.3-6.7,10.8-11,14.8l-2.6,2.4l3.5-0.5
		c59.8-7.7,79.8-42.4,89.6-60.2c1.6-3,3.2-5.8,4.6-7.7c1.3-2,2.7-3,3-2.9c0.5,0,1.5,0.5,2.5,2c2.9,4.4,5.4,15.3,5.4,26.6
		c0,4.9-0.5,10-1.5,14.7l-0.7,3.5l2.6-2.4c22.6-20.9,28.8-42.9,28.8-61.2c0-14-3.6-25.9-6.1-33.6c-1.4-4.2-2.5-8.1-2.5-9.8
		c0-1.5,0.3-2.3,0.6-2.7c0.3-0.4,0.8-0.7,1.7-0.9c9.5,0,20.9,3.4,34.4,9.9l2.7,1.3l-1.1-2.7c-18.4-43.1-59.5-61.6-99.4-71.7
		c-20-5.1-39.8-8-56.5-10.9c-12.1-2.1-22.6-4.2-30.2-6.9c-1.3-0.6-2.5-1.1-3.8-1.7c22.8-2.9,50.4-19,74.9-34.7
		c9.2-5.9,16.3-11.9,22-16.6c3-2.5,5.8-4.8,8.1-6.4c2.3-1.7,4.3-2.6,5.2-2.6c0.8,0,1.5,0.3,2.3,1.1c2.2,2.4,3.6,9.1,3.5,16.4
		c0,5.9-0.8,12.2-2.2,17.2l-0.8,2.8l2.5-1.6c19.4-12.5,28.8-31.4,28.8-49.2c0-17.8-9.9-28.9-16.2-36c-1-1.1-2.1-2.4-3-3.5
		c-0.7-0.9-1.3-1.8-1.5-2.2c0.1-0.5,0.7-1.4,1.8-2.1c4.1-3.1,11-4.9,19.1-4.9c4.1,0,8.5,0.5,13,1.5l3.1,0.7l-1.9-2.5
		c-16.7-21.5-35.9-27.7-53.1-27.7c-13.5,0-25.7,3.8-34.6,6.7c-4.3,1.4-10.3,3.3-12.9,3.2c-0.3,0-0.6,0-0.7-0.1
		c0.1-3.1,2.3-8.4,6.6-14c4.4-5.7,10.9-11.9,19.2-16.9l3-1.8l-3.5-0.2c-1.5-0.1-3.1-0.2-4.7-0.2c-34.4,0-78.8,25-111.5,41.9
		C79.8,100.1,37,124.9,24.1,117.2z"/>
</g>
</svg>
