<?xml version="1.0" encoding="utf-8"?>
<!-- Generator: Adobe Illustrator 18.1.1, SVG Export Plug-In . SVG Version: 6.00 Build 0)  -->
<svg version="1.1" id="Layer_1" xmlns="http://www.w3.org/2000/svg" xmlns:xlink="http://www.w3.org/1999/xlink" x="0px" y="0px"
	 viewBox="132.8 1.1 373.9 477.9" enable-background="new 132.8 1.1 373.9 477.9" xml:space="preserve">
<path fill="#FFFFFF" d="M433.5,214.1c-5.3-4-9.5-7.1-12.6-10.2c-3-3.1-4.9-6.4-4.9-10.3c0-5,3.1-9.2,8.2-16.6
	c10-14.6,26.5-38.7,26.5-73.6c0-22.7-9.3-43.2-26.3-57.7c-19.6-16.7-49-25.7-85.1-25.7c-71.5,0-140.5,38.4-170.3,68.3
	c-9.9,9.9-15.3,19-15.3,24.6c0,2,1.4,3.4,3.5,4.7c12.9,7.6,55.6-17.1,75.9-27.7c32.6-16.8,76.9-41.8,111.1-41.8
	c1.6,0,3.1,0.1,4.7,0.2l3.5,0.2l-3,1.8c-8.3,5-14.7,11.1-19.1,16.8c-4.3,5.6-6.5,10.8-6.6,14c0.1,0,0.4,0.1,0.7,0.1
	c2.5,0,8.5-1.8,12.9-3.2c8.8-2.9,21-6.7,34.5-6.7c17,0,36.2,6.2,52.8,27.6l1.9,2.4l-3-0.7c-4.5-1-8.8-1.5-12.9-1.5
	c-8,0-14.9,1.8-19,4.9c-1.1,0.8-1.6,1.7-1.7,2.1c0.2,0.3,0.7,1.2,1.5,2.1c0.9,1.1,2,2.4,3,3.5c6.4,7.1,16.2,18.1,16.1,35.9
	c0,17.6-9.3,36.5-28.7,49l-2.4,1.6l0.8-2.8c1.4-5.1,2.2-11.4,2.2-17.1c0-7.3-1.3-14-3.5-16.3c-0.7-0.8-1.4-1.1-2.2-1.1
	c-0.9,0-2.8,0.9-5.2,2.5c-2.3,1.6-5.1,4-8.1,6.4c-5.7,4.8-12.8,10.7-21.9,16.6c-24.3,15.6-51.8,31.7-74.6,34.6
	c1.2,0.6,2.4,1.1,3.8,1.7c7.6,2.7,18,4.8,30.1,6.9c16.6,2.8,36.3,5.8,56.3,10.8c39.8,10,80.7,28.5,99.1,71.5l1.1,2.7l-2.6-1.2
	c-13.5-6.4-24.8-9.8-34.3-9.8c-0.9,0.2-1.4,0.5-1.7,0.9c-0.3,0.4-0.6,1.1-0.6,2.7c0,1.8,1.1,5.6,2.5,9.8c2.5,7.6,6.1,19.5,6.1,33.5
	c0,18.3-6.2,40.2-28.7,60.9l-2.5,2.4l0.7-3.4c1-4.7,1.4-9.7,1.4-14.6c0-11.4-2.4-22.2-5.4-26.6c-1-1.4-1.9-2-2.4-2
	c-0.3-0.1-1.6,0.8-2.9,2.8c-1.4,1.9-2.9,4.7-4.6,7.7c-9.8,17.8-29.7,52.3-89.2,60l-3.8,0.1l2.6-2.3c4.3-4,8.2-9.4,11-14.7
	c2.8-5.3,4.5-10.4,4.5-13.2c0-0.9-0.2-1.5-0.4-1.8s-0.6-0.5-1.6-0.5c-2.4,0-6.8,1.6-10.7,2.7c-9.2,2.5-22,6.2-36.4,6.2
	c-19.5,0-42.1-6.6-62.5-30.9l-1.7-2l2.6,0.2c2.9,0.3,5.7,0.4,8.1,0.4c7,0,11.9-1,14.9-2.3c2.8-1.1,4-2.6,4.1-3.1c0,0,0,0-0.1-0.1
	c-0.1-0.1-0.2-0.3-0.3-0.5c-0.3-0.4-0.8-0.9-1.3-1.5c-1.1-1.1-2.4-2.4-3.5-3.4c-6.1-5.7-16.3-16.6-16.4-31.8
	c0-9.3,3.9-20.2,14.7-32.1l2.3-2.5l-0.4,3.4c-0.2,1.5-0.2,3-0.2,4.6c0,7.3,1.9,13,4.7,16.8c2.6,3.8,6,5.8,8.7,5.8
	c0.1-0.1,0.1-0.2,0.2-0.4c0.3-0.6,0.5-1.9,0.5-4.1c0-11.3,9.7-20.6,21.2-20.6c10.1,0,17,4.7,21.3,10c2,2.5,3.5,5.2,4.7,7.5
	c0-0.6,0-1.2,0-1.8c0-21.2-9-34.3-21-42.4c-12-8-27.1-10.8-39-10.8l0,0c-21.4,0-38.4,8.9-50.2,22.2c-11.8,13.2-18.1,30.8-18.1,48.1
	c0,58.1,55.1,117.3,161.6,117.3c42.7,0,85.8-14,118.1-38.4c26.3-19.9,57.5-55.7,57.5-114.8C488.6,254.7,454.4,229.6,433.5,214.1z"/>
<path fill="#FFFFFF" d="M357.5,162.6c7.8-6.4,13.1-11.1,19.2-11.2c3.5,0,6.7,1.5,9.1,4.3c4,4.6,5.5,12.8,5.6,20c0,0.6,0,1.2,0,1.8
	c5.9-8.3,9.8-19.4,9.8-29.7c0-14.2-7.8-23-13.8-29.7c-3.8-4.3-6.7-7.5-6.7-11.8c0-2.6,1-6.4,5.3-9.6c4-3.1,10.2-5.4,17.9-5.9
	c-11.6-7.7-22.4-10.3-32.4-10.3c-11.6,0-22,3.4-31,6.4c-6.7,2.1-12.5,4.2-17.6,4.2c-3,0-5.2-1-6.6-2.5c-1.4-1.5-1.9-3.4-1.9-5.3
	c0-7.4,4.4-16.1,11.1-23.6c-29,7.4-59.7,23.8-87.5,38.7c-17.1,9.1-32.9,17.5-46.4,22.8c9.7,0.4,22,0.6,37.4,0.6c1.7,0,3.4,0,5.1,0
	c18.7,0,36.6,0.1,51.6,1.7s27,4.8,33.8,11.5c3.8,3.8,5.8,8.5,5.8,13.7c0,6.6-4.2,12.3-10.5,17.8c-6.4,5.6-15.1,11.2-24.8,17.4
	c-9.9,6.3-23.2,15.4-29.6,21.8c-6.3,6.3,1.4,6.4,6.6,6c13.9-1.1,33.6-10,70.1-33.2C345.1,173.1,351.9,167.2,357.5,162.6z"/>
<path fill="#FFFFFF" d="M274.9,363.4l-3.2,2.5l1.6-3.9c1.4-3.5,2.2-7.8,2.2-12.4c0-7.2-1.9-15-5.6-20.8c-3.8-5.8-9-9.7-16-9.7
	c-3,0-6.1,1.3-8.2,3.4c-2.2,2.1-3.5,4.9-3.5,7.8c0,2.5,0,5.9-1.2,8.7c-1.2,2.8-4.1,5.2-8.8,5.1c-4.6,0-9.2-2.5-13.1-6.8
	c-2.5-2.8-4.5-6.3-5.9-10c-1.5,4.4-2.1,8.2-2.1,11.7c0,11.9,7.6,19,13.9,24.9c4.4,4,8.2,7.3,8.2,12.2c0,3.2-1.7,6.2-4.5,8.6
	c-3.3,2.8-7.9,4.7-13.1,5.5c14.9,11.3,29.3,14.7,42.5,14.7c12.8,0,24.4-3.2,34-6c6.1-1.7,11.5-3.2,16-3.3h0.1c3.1,0,5.9,1.9,7.2,5.1
	c0.7,1.6,1,3.5,1,5.7c0,5.3-1.9,12-5.7,18.5c41.6-12.5,54.9-36.7,63.4-51.8c2.3-4.3,4.4-8,6.8-10.7c2.3-2.7,5.3-4.6,8.9-4.6
	c2.2,0,5.7,0.9,8.8,4.8c4.1,5,7.1,14.2,7.4,25.8c8.8-14.4,11.6-27.2,11.6-38.3c0-12.2-3.3-22.3-5.9-30.1c-1.6-5.1-2.9-9.1-2.9-12.7
	c0-6.8,4.6-12.8,10.3-12.9c5.7,0,11.2,0.7,19.2,3.2c-17.7-23.7-49.6-39.5-80.3-46.8c5.7,6.4,8.8,14.7,8.8,24.6
	c0,20.8-8.1,40.2-22.3,53c-13.3,12.2-30.4,18.5-51.1,18.5c-1.6,0-3.2,0-5-0.1C286.1,351.6,281.1,358.5,274.9,363.4z"/>
<g>
	<path d="M443,201.5c-3.9-2.8-8.4-6.2-10.4-8.2c1.1-1.9,3-4.9,4.8-7.3c10.1-14.8,29.3-42.7,29.3-82.5c0-22.9-8.4-47.8-28.5-66.8
		c-20.2-19.1-52-32.3-98.8-32.3c-44.3,0-94.3,14.6-137.4,40.1C182.6,55.8,166.6,68,155.5,80c-11.1,11.9-17.5,23.2-17.5,33
		c0,4.8,1.8,9.1,5.3,12.5c6.3,6.2,17.4,9.1,31.7,10.6c14.3,1.5,31.6,1.5,50.4,1.5h3.2c28.9,0,49.3,0.8,62.3,2.6
		c6.5,0.9,11.2,2.2,14.1,3.7c2.9,1.5,3.9,2.9,3.9,4.6c0.1,0.7-0.7,2.2-2.5,4c-6.2,6.3-22.6,15.5-37.3,25.8
		c-7.4,5.1-14.4,10.4-19.6,15.9c-5.2,5.5-8.7,11.1-8.7,16.8v0.3c0.1,7.3,4,13.2,9.8,17.7c17.8,13.7,55,17.3,74.3,20.9
		c12,2.1,18.4,6.4,21.7,11.1c3.4,4.7,4.1,9.8,4.1,14.3c0,16.6-6.2,31.3-17.2,41.4c-9.8,9-21.7,14.9-38.9,14.9c-0.7,0-1.3,0-2,0
		c0.4-3.3,0.6-6.6,0.6-9.7c0-19.6-7.7-35.9-20.8-47.1c-13.1-11.4-31.4-17.7-52.7-17.7c-26.3,0-47.4,11-61.9,27.1
		c-14.4,16.2-22.3,37.6-22.3,58.7c0,33.2,15.3,66.5,45.1,91.6c29.8,24.9,74.2,41.7,132.3,41.7c46,0,92.5-15.2,127.7-41.6
		c29.1-21.9,63.9-62,63.9-127.5C504.5,246.7,464.2,217.1,443,201.5 M259.7,205.6c6.4-6.4,19.7-15.5,29.6-21.8
		c9.7-6.3,18.5-11.9,24.8-17.4s10.5-11.3,10.5-17.8c0-5.2-2-9.9-5.8-13.7c-6.8-6.7-18.8-9.8-33.8-11.5c-15-1.6-33-1.7-51.6-1.7
		c-1.7,0-3.4,0-5.1,0c-15.4,0-27.6-0.2-37.4-0.6c13.6-5.3,29.3-13.7,46.4-22.8C265.3,83.3,296,66.9,325,59.5
		c-6.7,7.6-11.1,16.2-11.1,23.6c0,1.8,0.6,3.8,1.9,5.3c1.4,1.5,3.7,2.5,6.6,2.5c5.2,0,11-2,17.6-4.2c9-2.9,19.6-6.4,31-6.4
		c10,0,20.9,2.5,32.4,10.3c-7.7,0.5-14,2.7-17.9,5.9c-4.3,3.2-5.3,7.1-5.3,9.6c0,4.3,3,7.5,6.7,11.8c6,6.7,13.8,15.5,13.8,29.7
		c0,10.3-4,21.4-9.8,29.7c0-0.6,0-1.2,0-1.8c0-7.2-1.6-15.3-5.6-20c-2.4-2.7-5.6-4.3-9.1-4.3c-6.1,0.1-11.4,4.7-19.2,11.2
		c-5.6,4.6-12.4,10.4-21.1,15.8c-36.6,23-56.2,31.9-70.1,33.2C261.1,212,253.4,211.9,259.7,205.6z M293.3,346.7
		c20.6,0,37.7-6.3,51.1-18.5c14.2-12.9,22.3-32.2,22.3-53c0-9.9-3.1-18.3-8.8-24.6c30.7,7.3,62.6,23.1,80.3,46.8
		c-7.9-2.5-13.5-3.2-19.2-3.2c-5.8,0.1-10.2,6.1-10.3,12.9c0,3.5,1.3,7.6,2.9,12.7c2.5,7.9,5.9,18,5.9,30.1c0,11.2-2.7,24-11.6,38.3
		c-0.3-11.6-3.3-20.8-7.4-25.8c-3.1-3.9-6.5-4.8-8.8-4.8c-3.7,0-6.5,1.8-8.9,4.6c-2.4,2.7-4.5,6.5-6.8,10.7
		c-8.4,15.2-21.7,39.3-63.4,51.8c3.8-6.5,5.7-13.1,5.7-18.5c0-2.1-0.3-4.1-1-5.7c-1.3-3.1-4.1-5.1-7.2-5.1H308
		c-4.6,0.2-9.8,1.6-16,3.3c-9.5,2.6-21.2,6-34,6c-13.2,0-27.7-3.4-42.5-14.7c5.2-0.8,9.7-2.5,13.1-5.5c2.7-2.3,4.5-5.4,4.5-8.6
		c-0.1-4.9-3.9-8.2-8.2-12.2c-6.4-6-14-13.1-13.9-24.9c0-3.4,0.6-7.3,2.1-11.7c1.3,3.8,3.3,7.2,5.9,10c3.9,4.2,8.5,6.8,13.1,6.8
		c4.8,0.1,7.6-2.2,8.8-5.1c1.2-2.8,1.2-6.2,1.2-8.7c0-2.9,1.3-5.8,3.5-7.8c2.2-2.1,5.2-3.4,8.2-3.4c7,0,12.3,3.9,16,9.7
		c3.7,5.8,5.6,13.6,5.6,20.8c0,4.5-0.7,8.8-2.2,12.4l-1.6,3.9l3.2-2.5c6.3-4.9,11.2-11.8,13.4-16.8
		C289.9,346.7,291.7,346.7,293.3,346.7z M157.2,117.6c-2.1-1.3-3.5-2.6-3.5-4.7c0-5.7,5.4-14.7,15.3-24.6
		C198.8,58.4,267.8,20,339.3,20c36.1,0,65.6,8.9,85.1,25.7c16.9,14.4,26.3,35,26.3,57.7c0,35-16.4,59.1-26.5,73.6
		c-5.1,7.4-8.2,11.8-8.2,16.6c0,4,1.8,7.2,4.9,10.3c3,3.1,7.3,6.3,12.6,10.2c20.8,15.4,55.1,40.6,55.1,92.6
		c0,59-31.2,94.9-57.5,114.8c-32.3,24.4-75.5,38.4-118.1,38.4c-106.6,0-161.6-59.2-161.6-117.3c0-17.2,6.4-34.8,18.1-48.1
		c11.8-13.3,28.8-22.2,50.2-22.2l0,0c12,0,27.1,2.8,39,10.8c12,8,21,21.1,21,42.4c0,0.6,0,1.2,0,1.8c-1.1-2.3-2.5-5.1-4.7-7.5
		c-4.4-5.3-11.3-10-21.3-10c-11.5,0-21.2,9.3-21.2,20.6c0,2.1-0.2,3.3-0.5,4.1c-0.1,0.2-0.2,0.4-0.2,0.4c-2.8-0.1-6.1-2-8.7-5.8
		c-2.5-3.9-4.6-9.5-4.6-16.8c0-1.4,0.1-2.9,0.2-4.6l0.4-3.4l-2.3,2.5C206,318.8,202,329.6,202,339c0,15.3,10.3,26.2,16.4,31.8
		c1.1,1,2.5,2.3,3.5,3.4c0.5,0.6,1,1.1,1.3,1.5c0.2,0.2,0.3,0.4,0.3,0.5c0,0,0,0.1,0.1,0.1c-0.1,0.6-1.2,2-4.1,3.1
		c-3,1.3-8,2.3-14.9,2.3c-2.4,0-5.1-0.1-8.1-0.4l-2.6-0.2l1.7,2c20.4,24.3,42.9,30.9,62.5,30.9c14.4,0,27.2-3.5,36.4-6.2
		c3.9-1.1,8.3-2.7,10.7-2.7c1,0,1.4,0.2,1.6,0.5c0.2,0.3,0.4,0.9,0.4,1.8c0,2.8-1.6,7.9-4.5,13.2c-2.7,5.3-6.7,10.8-11,14.7
		l-2.5,2.5l3.4-0.4c59.6-7.7,79.5-42.2,89.2-60c1.6-2.9,3.1-5.8,4.6-7.7c1.3-2,2.6-2.9,2.9-2.8c0.5,0,1.4,0.5,2.4,2
		c2.9,4.4,5.4,15.2,5.4,26.6c0,4.9-0.4,9.9-1.4,14.6l-0.7,3.4l2.5-2.4c22.5-20.8,28.7-42.7,28.7-60.9c0-14-3.5-25.8-6.1-33.5
		c-1.4-4.3-2.5-8-2.5-9.8c0-1.5,0.3-2.3,0.6-2.7c0.3-0.4,0.8-0.6,1.7-0.9c9.5,0,20.8,3.4,34.3,9.8l2.6,1.2l-1.1-2.7
		c-18.4-43-59.2-61.4-99.1-71.5c-20-5.1-39.6-8-56.3-10.8c-12.1-2.1-22.5-4.2-30.1-6.9c-1.3-0.5-2.5-1.1-3.8-1.7
		c22.7-2.8,50.2-18.9,74.6-34.6c9.1-5.9,16.2-11.9,21.9-16.6c2.9-2.4,5.8-4.8,8.1-6.4s4.3-2.6,5.2-2.5c0.8,0,1.5,0.3,2.2,1.1
		c2.2,2.4,3.5,9.1,3.5,16.3c0,5.9-0.8,12.2-2.2,17.1l-0.8,2.8l2.4-1.6c19.4-12.5,28.7-31.3,28.7-49c0-17.7-9.8-28.8-16.1-35.9
		c-1-1.1-2.1-2.4-3-3.5c-0.7-0.9-1.3-1.8-1.5-2.1c0.1-0.4,0.7-1.4,1.7-2.1c4.1-3,11-5,19-4.9c4.1,0,8.4,0.5,12.9,1.5l3,0.7l-1.9-2.4
		c-16.6-21.4-35.8-27.6-52.8-27.6c-13.4,0-25.6,3.8-34.5,6.7c-4.4,1.4-10.3,3.2-12.9,3.2c-0.3,0-0.6,0-0.7-0.1
		c0.1-3.1,2.3-8.4,6.6-14c4.4-5.7,10.8-11.9,19.1-16.8l3-1.8l-3.5-0.2c-1.5-0.1-3-0.2-4.7-0.2c-34.3,0-78.5,24.9-111.1,41.8
		C212.8,100.6,170.1,125.3,157.2,117.6z"/>
</g>
</svg>
