<?xml version="1.0" encoding="utf-8"?>
<!-- Generator: Adobe Illustrator 18.1.1, SVG Export Plug-In . SVG Version: 6.00 Build 0)  -->
<svg version="1.1" id="Layer_1" xmlns="http://www.w3.org/2000/svg" xmlns:xlink="http://www.w3.org/1999/xlink" x="0px" y="0px"
	 viewBox="0 0 167.4 47.4" enable-background="new 0 0 167.4 47.4" xml:space="preserve">
<polyline fill="#1D1D1B" points="0.9,8.9 0.9,0.5 38.1,0.5 38.1,8.9 24.5,8.9 24.5,46 14.5,46 14.5,8.9 0.9,8.9 "/>
<path fill="#1D1D1B" d="M50.2,0.5v17.1h0.2c1.1-1.9,2.6-3.3,4.4-4.2c1.8-0.9,3.5-1.3,5.2-1.3c2.4,0,4.4,0.3,6,1
	c1.5,0.7,2.8,1.6,3.7,2.7c0.9,1.2,1.5,2.6,1.9,4.3c0.4,1.7,0.5,3.5,0.5,5.6V46H63V27.4c0-2.7-0.4-4.7-1.3-6.1c-0.9-1.3-2.4-2-4.5-2
	c-2.5,0-4.2,0.7-5.3,2.2c-1.1,1.5-1.7,3.9-1.7,7.2V46h-9.1V0.5H50.2"/>
<path fill="#1D1D1B" d="M84.9,13.1v6.1h0.1c0.4-1,1-2,1.7-2.8c0.7-0.9,1.5-1.6,2.5-2.2c0.9-0.6,1.9-1.1,3-1.4
	c1.1-0.3,2.2-0.5,3.3-0.5c0.6,0,1.2,0.1,2,0.3v8.4c-0.4-0.1-0.9-0.2-1.5-0.2c-0.6-0.1-1.2-0.1-1.7-0.1c-1.7,0-3.1,0.3-4.2,0.8
	C89,22,88,22.7,87.3,23.7c-0.7,1-1.2,2.1-1.5,3.3c-0.3,1.3-0.4,2.7-0.4,4.1V46h-9V13.1H84.9"/>
<path fill="#1D1D1B" d="M109.6,38.1c1.4,1.3,3.3,2,5.9,2c1.8,0,3.4-0.5,4.7-1.4c1.3-0.9,2.1-1.9,2.4-2.9h8c-1.3,3.9-3.2,6.8-5.9,8.5
	c-2.6,1.7-5.8,2.5-9.6,2.5c-2.6,0-4.9-0.4-7-1.2c-2.1-0.8-3.8-2-5.3-3.5c-1.5-1.5-2.6-3.4-3.4-5.5c-0.8-2.1-1.2-4.5-1.2-7
	c0-2.5,0.4-4.8,1.2-6.9c0.8-2.1,2-4,3.4-5.5c1.5-1.5,3.3-2.8,5.3-3.7c2.1-0.9,4.3-1.3,6.8-1.3c2.8,0,5.2,0.5,7.3,1.6
	c2.1,1.1,3.8,2.5,5.1,4.4c1.3,1.8,2.3,3.9,2.9,6.2c0.6,2.3,0.8,4.8,0.6,7.3h-23.8C107.5,34.7,108.2,36.8,109.6,38.1 M119.8,20.8
	c-1.1-1.2-2.7-1.8-4.9-1.8c-1.5,0-2.7,0.2-3.6,0.7c-0.9,0.5-1.7,1.1-2.3,1.8c-0.6,0.7-1,1.5-1.2,2.3c-0.2,0.8-0.4,1.5-0.4,2.2h14.7
	C121.6,23.7,120.9,22,119.8,20.8z"/>
<path fill="#1D1D1B" d="M144.9,38.1c1.4,1.3,3.3,2,5.9,2c1.8,0,3.4-0.5,4.7-1.4c1.3-0.9,2.1-1.9,2.4-2.9h8c-1.3,3.9-3.2,6.8-5.9,8.5
	c-2.6,1.7-5.8,2.5-9.5,2.5c-2.6,0-4.9-0.4-7-1.2c-2.1-0.8-3.8-2-5.3-3.5c-1.4-1.5-2.5-3.4-3.3-5.5c-0.8-2.1-1.2-4.5-1.2-7
	c0-2.5,0.4-4.8,1.2-6.9c0.8-2.1,2-4,3.4-5.5c1.5-1.5,3.3-2.8,5.3-3.7c2.1-0.9,4.3-1.3,6.9-1.3c2.8,0,5.2,0.5,7.3,1.6
	c2.1,1.1,3.8,2.5,5.1,4.4c1.4,1.8,2.3,3.9,2.9,6.2c0.6,2.3,0.8,4.8,0.6,7.3h-23.8C142.8,34.7,143.6,36.8,144.9,38.1 M155.2,20.8
	c-1.1-1.2-2.7-1.8-4.9-1.8c-1.4,0-2.6,0.2-3.6,0.7c-1,0.5-1.7,1.1-2.3,1.8c-0.6,0.7-1,1.5-1.2,2.3c-0.2,0.8-0.4,1.5-0.4,2.2h14.7
	C157,23.7,156.3,22,155.2,20.8z"/>
</svg>
