<?xml version="1.0" encoding="utf-8"?>
<!-- Generator: Adobe Illustrator 18.1.1, SVG Export Plug-In . SVG Version: 6.00 Build 0)  -->
<svg version="1.1" id="Layer_1" xmlns="http://www.w3.org/2000/svg" xmlns:xlink="http://www.w3.org/1999/xlink" x="0px" y="0px"
	 viewBox="0 0 370.3 473.4" enable-background="new 0 0 370.3 473.4" xml:space="preserve">
<path fill="#FFFFFF" d="M297.1,211.2c-5.2-3.9-9.4-7-12.4-10.1c-3-3.1-4.8-6.3-4.8-10.2c0-4.9,3.1-9.1,8.1-16.4
	c9.9-14.4,26.1-38.2,26.1-72.6c0-22.4-9.2-42.6-25.9-56.9c-19.3-16.5-48.3-25.3-83.9-25.3c-70.5,0-138.6,37.9-168,67.4
	c-9.8,9.8-15.1,18.7-15.1,24.3c0,2,1.4,3.4,3.5,4.6c12.7,7.5,54.8-16.9,74.9-27.3c32.2-16.6,75.8-41.2,109.6-41.2
	c1.6,0,3.1,0.1,4.6,0.2l3.5,0.2l-3,1.8c-8.2,4.9-14.5,10.9-18.8,16.6c-4.2,5.5-6.4,10.7-6.5,13.8c0.1,0,0.4,0.1,0.7,0.1
	c2.5,0,8.4-1.8,12.7-3.2c8.7-2.9,20.7-6.6,34-6.6c16.8,0,35.7,6.1,52.1,27.2l1.9,2.4l-3-0.7c-4.4-1-8.7-1.5-12.7-1.5
	c-7.9,0-14.7,1.8-18.7,4.8c-1.1,0.8-1.6,1.7-1.7,2.1c0.2,0.3,0.7,1.2,1.5,2.1c0.9,1.1,2,2.4,3,3.5c6.3,7,16,17.9,15.9,35.4
	c0,17.4-9.2,36-28.3,48.3l-2.4,1.6l0.8-2.8c1.4-5,2.2-11.2,2.2-16.9c0-7.2-1.3-13.8-3.5-16.1c-0.7-0.8-1.4-1.1-2.2-1.1
	c-0.9,0-2.8,0.9-5.1,2.5c-2.3,1.6-5,3.9-8,6.3c-5.6,4.7-12.6,10.6-21.6,16.4c-24,15.4-51.1,31.3-73.6,34.1c1.2,0.6,2.4,1.1,3.7,1.7
	c7.5,2.7,17.8,4.7,29.7,6.8c16.4,2.8,35.8,5.7,55.5,10.7c39.3,9.9,79.6,28.1,97.7,70.5l1.1,2.7l-2.6-1.2
	c-13.3-6.3-24.5-9.7-33.8-9.7c-0.9,0.2-1.4,0.5-1.7,0.9c-0.3,0.4-0.6,1.1-0.6,2.7c0,1.8,1.1,5.5,2.5,9.7c2.5,7.5,6,19.2,6,33
	c0,18-6.1,39.6-28.3,60.1l-2.5,2.4l0.7-3.4c1-4.6,1.4-9.6,1.4-14.4c0-11.2-2.4-21.9-5.3-26.2c-1-1.4-1.9-2-2.4-2
	c-0.3-0.1-1.6,0.8-2.9,2.8c-1.4,1.9-2.9,4.6-4.5,7.6c-9.7,17.6-29.3,51.6-88,59.2L155,432l2.6-2.3c4.2-3.9,8.1-9.3,10.8-14.5
	c2.8-5.2,4.4-10.3,4.4-13c0-0.9-0.2-1.5-0.4-1.8c-0.2-0.3-0.6-0.5-1.6-0.5c-2.4,0-6.7,1.6-10.6,2.7c-9.1,2.5-21.7,6.1-35.9,6.1
	c-19.2,0-41.5-6.5-61.6-30.5l-1.7-2l2.6,0.2c2.9,0.3,5.6,0.4,8,0.4c6.9,0,11.7-1,14.7-2.3c2.8-1.1,3.9-2.6,4-3.1c0,0,0,0-0.1-0.1
	c-0.1-0.1-0.2-0.3-0.3-0.5c-0.3-0.4-0.8-0.9-1.3-1.5c-1.1-1.1-2.4-2.4-3.5-3.4c-6-5.6-16.1-16.4-16.2-31.4c0-9.2,3.8-19.9,14.5-31.7
	l2.3-2.5l-0.4,3.4c-0.2,1.5-0.2,3-0.2,4.5c0,7.2,1.9,12.8,4.6,16.6c2.6,3.7,5.9,5.7,8.6,5.7c0.1-0.1,0.1-0.2,0.2-0.4
	c0.3-0.6,0.5-1.9,0.5-4c0-11.1,9.6-20.3,20.9-20.3c10,0,16.8,4.6,21,9.9c2,2.5,3.5,5.1,4.6,7.4c0-0.6,0-1.2,0-1.8
	c0-20.9-8.9-33.8-20.7-41.8c-11.8-7.9-26.7-10.7-38.5-10.7h0c-21.1,0-37.9,8.8-49.5,21.9c-11.6,13-17.9,30.4-17.9,47.4
	c0,57.3,54.3,115.7,159.4,115.7c42.1,0,84.6-13.8,116.5-37.9c25.9-19.6,56.7-54.9,56.7-113.2C351.4,251.2,317.7,226.4,297.1,211.2z"
	/>
<path fill="#FFFFFF" d="M222.1,160.4c7.7-6.3,12.9-10.9,18.9-11c3.5,0,6.6,1.5,9,4.2c3.9,4.5,5.4,12.6,5.5,19.7c0,0.6,0,1.2,0,1.8
	c5.8-8.2,9.7-19.1,9.7-29.3c0-14-7.7-22.7-13.6-29.3c-3.7-4.2-6.6-7.4-6.6-11.6c0-2.6,1-6.3,5.2-9.5c3.9-3.1,10.1-5.3,17.7-5.8
	c-11.4-7.6-22.1-10.2-32-10.2c-11.4,0-21.7,3.4-30.6,6.3c-6.6,2.1-12.3,4.1-17.4,4.1c-3,0-5.1-1-6.5-2.5c-1.4-1.5-1.9-3.4-1.9-5.2
	c0-7.3,4.3-15.9,10.9-23.3c-28.6,7.3-58.9,23.5-86.3,38.2c-16.9,9-32.4,17.3-45.8,22.5c9.6,0.4,21.7,0.6,36.9,0.6c1.7,0,3.4,0,5,0
	c18.4,0,36.1,0.1,50.9,1.7c14.8,1.6,26.6,4.7,33.3,11.3c3.7,3.7,5.7,8.4,5.7,13.5c0,6.5-4.1,12.1-10.4,17.6
	c-6.3,5.5-14.9,11-24.5,17.2c-9.8,6.2-22.9,15.2-29.2,21.5c-6.2,6.2,1.4,6.3,6.5,5.9c13.7-1.1,33.1-9.9,69.1-32.7
	C209.9,170.7,216.6,164.9,222.1,160.4z"/>
<path fill="#FFFFFF" d="M140.7,358.4l-3.2,2.5l1.6-3.8c1.4-3.5,2.2-7.7,2.2-12.2c0-7.1-1.9-14.8-5.5-20.5c-3.7-5.7-8.9-9.6-15.8-9.6
	c-3,0-6,1.3-8.1,3.4c-2.2,2.1-3.5,4.8-3.5,7.7c0,2.5,0,5.8-1.2,8.6c-1.2,2.8-4,5.1-8.7,5c-4.5,0-9.1-2.5-12.9-6.7
	c-2.5-2.8-4.4-6.2-5.8-9.9c-1.5,4.3-2.1,8.1-2.1,11.5c0,11.7,7.5,18.7,13.7,24.6c4.3,3.9,8.1,7.2,8.1,12c0,3.2-1.7,6.1-4.4,8.5
	c-3.3,2.8-7.8,4.6-12.9,5.4c14.7,11.1,28.9,14.5,41.9,14.5c12.6,0,24.1-3.2,33.5-5.9c6-1.7,11.3-3.2,15.8-3.3c0,0,0.1,0,0.1,0
	c3.1,0,5.8,1.9,7.1,5c0.7,1.6,1,3.5,1,5.6c0,5.2-1.9,11.8-5.6,18.2c41-12.3,54.1-36.2,62.5-51.1c2.3-4.2,4.3-7.9,6.7-10.6
	c2.3-2.7,5.2-4.5,8.8-4.5c2.2,0,5.6,0.9,8.7,4.7c4,4.9,7,14,7.3,25.4c8.7-14.2,11.4-26.8,11.4-37.8c0-12-3.3-22-5.8-29.7
	c-1.6-5-2.9-9-2.9-12.5c0-6.7,4.5-12.6,10.2-12.7c5.6,0,11,0.7,18.9,3.2c-17.5-23.4-48.9-39-79.2-46.2c5.6,6.3,8.7,14.5,8.7,24.3
	c0,20.5-8,39.6-22,52.3c-13.1,12-30,18.2-50.4,18.2c-1.6,0-3.2,0-4.9-0.1C151.7,346.8,146.8,353.6,140.7,358.4z"/>
<g>
	<path d="M306.5,198.7c-3.8-2.8-8.3-6.1-10.3-8.1c1.1-1.9,3-4.8,4.7-7.2c10-14.6,28.9-42.1,28.9-81.4c0-22.6-8.3-47.1-28.1-65.9
		c-19.9-18.8-51.3-31.9-97.4-31.9c-43.7,0-93,14.4-135.5,39.5C49.6,55,33.9,67.1,22.9,78.9C12,90.6,5.6,101.8,5.6,111.4
		c0,4.7,1.8,9,5.2,12.3c6.2,6.1,17.2,9,31.3,10.5c14.1,1.5,31.2,1.5,49.7,1.5H95c28.5,0,48.6,0.8,61.4,2.6c6.4,0.9,11,2.2,13.9,3.6
		c2.9,1.5,3.8,2.9,3.8,4.5c0.1,0.7-0.7,2.2-2.5,3.9c-6.1,6.2-22.3,15.3-36.8,25.4c-7.3,5-14.2,10.3-19.3,15.7
		c-5.1,5.4-8.6,10.9-8.6,16.6v0.3c0.1,7.2,3.9,13,9.7,17.5c17.6,13.5,54.2,17.1,73.3,20.6c11.8,2.1,18.1,6.3,21.4,10.9
		c3.4,4.6,4,9.7,4,14.1c0,16.4-6.1,30.9-17,40.8c-9.7,8.9-21.4,14.7-38.4,14.7c-0.7,0-1.3,0-2,0c0.4-3.3,0.6-6.5,0.6-9.6
		c0-19.3-7.6-35.4-20.5-46.5c-12.9-11.2-31-17.5-52-17.5c-25.9,0-46.7,10.8-61,26.7c-14.2,16-22,37.1-22,57.9
		c0,32.7,15.1,65.6,44.5,90.3c29.4,24.6,73.2,41.1,130.5,41.1c45.4,0,91.2-15,125.9-41c28.7-21.6,63-61.1,63-125.7
		C367.1,243.3,327.4,214.1,306.5,198.7 M125.7,202.8c6.3-6.3,19.4-15.3,29.2-21.5c9.6-6.2,18.2-11.7,24.5-17.2
		c6.3-5.5,10.4-11.1,10.4-17.6c0-5.1-2-9.8-5.7-13.5c-6.7-6.6-18.5-9.7-33.3-11.3c-14.8-1.6-32.5-1.7-50.9-1.7c-1.7,0-3.4,0-5,0
		c-15.2,0-27.2-0.2-36.9-0.6c13.4-5.2,28.9-13.5,45.8-22.5c27.4-14.7,57.7-30.9,86.3-38.2c-6.6,7.5-10.9,16-10.9,23.3
		c0,1.8,0.6,3.7,1.9,5.2c1.4,1.5,3.6,2.5,6.5,2.5c5.1,0,10.8-2,17.4-4.1c8.9-2.9,19.3-6.3,30.6-6.3c9.9,0,20.6,2.5,32,10.2
		c-7.6,0.5-13.8,2.7-17.7,5.8c-4.2,3.2-5.2,7-5.2,9.5c0,4.2,3,7.4,6.6,11.6c5.9,6.6,13.6,15.3,13.6,29.3c0,10.2-3.9,21.1-9.7,29.3
		c0-0.6,0-1.2,0-1.8c0-7.1-1.6-15.1-5.5-19.7c-2.4-2.7-5.5-4.2-9-4.2c-6,0.1-11.2,4.6-18.9,11c-5.5,4.5-12.2,10.3-20.8,15.6
		c-36.1,22.7-55.4,31.5-69.1,32.7C127.1,209.1,119.5,209,125.7,202.8z M158.8,341.9c20.3,0,37.2-6.2,50.4-18.2
		c14-12.7,22-31.8,22-52.3c0-9.8-3.1-18-8.7-24.3c30.3,7.2,61.7,22.8,79.2,46.2c-7.8-2.5-13.3-3.2-18.9-3.2
		c-5.7,0.1-10.1,6-10.2,12.7c0,3.5,1.3,7.5,2.9,12.5c2.5,7.8,5.8,17.8,5.8,29.7c0,11-2.7,23.7-11.4,37.8
		c-0.3-11.4-3.3-20.5-7.3-25.4c-3.1-3.8-6.4-4.7-8.7-4.7c-3.6,0-6.4,1.8-8.8,4.5c-2.4,2.7-4.4,6.4-6.7,10.6
		c-8.3,15-21.4,38.8-62.5,51.1c3.7-6.4,5.6-12.9,5.6-18.2c0-2.1-0.3-4-1-5.6c-1.3-3.1-4-5-7.1-5c0,0-0.1,0-0.1,0
		c-4.5,0.2-9.7,1.6-15.8,3.3c-9.4,2.6-20.9,5.9-33.5,5.9c-13,0-27.3-3.4-41.9-14.5c5.1-0.8,9.6-2.5,12.9-5.4
		c2.7-2.3,4.4-5.3,4.4-8.5c-0.1-4.8-3.8-8.1-8.1-12c-6.3-5.9-13.8-12.9-13.7-24.6c0-3.4,0.6-7.2,2.1-11.5c1.3,3.7,3.3,7.1,5.8,9.9
		c3.8,4.1,8.4,6.7,12.9,6.7c4.7,0.1,7.5-2.2,8.7-5c1.2-2.8,1.2-6.1,1.2-8.6c0-2.9,1.3-5.7,3.5-7.7c2.2-2.1,5.1-3.4,8.1-3.4
		c6.9,0,12.1,3.8,15.8,9.6c3.6,5.7,5.5,13.4,5.5,20.5c0,4.4-0.7,8.7-2.2,12.2l-1.6,3.8l3.2-2.5c6.2-4.8,11-11.6,13.2-16.6
		C155.5,341.9,157.2,341.9,158.8,341.9z M24.6,116c-2.1-1.3-3.5-2.6-3.5-4.6c0-5.6,5.3-14.5,15.1-24.3c29.4-29.5,97.5-67.4,168-67.4
		c35.6,0,64.7,8.8,83.9,25.3c16.7,14.2,25.9,34.5,25.9,56.9c0,34.5-16.2,58.3-26.1,72.6c-5,7.3-8.1,11.6-8.1,16.4
		c0,3.9,1.8,7.1,4.8,10.2c3,3.1,7.2,6.2,12.4,10.1c20.5,15.2,54.3,40,54.3,91.3c0,58.2-30.8,93.6-56.7,113.2
		c-31.9,24.1-74.5,37.9-116.5,37.9c-105.1,0-159.4-58.4-159.4-115.7c0-17,6.3-34.3,17.9-47.4c11.6-13.1,28.4-21.9,49.5-21.9h0
		c11.8,0,26.7,2.8,38.5,10.7c11.8,7.9,20.7,20.8,20.7,41.8c0,0.6,0,1.2,0,1.8c-1.1-2.3-2.5-5-4.6-7.4c-4.3-5.2-11.1-9.9-21-9.9
		c-11.3,0-20.9,9.2-20.9,20.3c0,2.1-0.2,3.3-0.5,4c-0.1,0.2-0.2,0.4-0.2,0.4c-2.8-0.1-6-2-8.6-5.7C87,320.8,85,315.2,85,308
		c0-1.4,0.1-2.9,0.2-4.5l0.4-3.4l-2.3,2.5c-10.6,11.8-14.5,22.5-14.5,31.7c0,15.1,10.2,25.8,16.2,31.4c1.1,1,2.5,2.3,3.5,3.4
		c0.5,0.6,1,1.1,1.3,1.5c0.2,0.2,0.3,0.4,0.3,0.5c0,0,0,0.1,0.1,0.1c-0.1,0.6-1.2,2-4,3.1c-3,1.3-7.9,2.3-14.7,2.3
		c-2.4,0-5-0.1-8-0.4l-2.6-0.2l1.7,2c20.1,24,42.3,30.5,61.6,30.5c14.2,0,26.8-3.5,35.9-6.1c3.8-1.1,8.2-2.7,10.6-2.7
		c1,0,1.4,0.2,1.6,0.5c0.2,0.3,0.4,0.9,0.4,1.8c0,2.8-1.6,7.8-4.4,13c-2.7,5.2-6.6,10.7-10.8,14.5L155,432l3.4-0.4
		c58.8-7.6,78.4-41.6,88-59.2c1.6-2.9,3.1-5.7,4.5-7.6c1.3-2,2.6-2.9,2.9-2.8c0.5,0,1.4,0.5,2.4,2c2.9,4.3,5.3,15,5.3,26.2
		c0,4.8-0.4,9.8-1.4,14.4l-0.7,3.4l2.5-2.4c22.2-20.5,28.3-42.1,28.3-60.1c0-13.8-3.5-25.4-6-33c-1.4-4.2-2.5-7.9-2.5-9.7
		c0-1.5,0.3-2.3,0.6-2.7c0.3-0.4,0.8-0.6,1.7-0.9c9.4,0,20.5,3.4,33.8,9.7l2.6,1.2l-1.1-2.7c-18.1-42.4-58.4-60.6-97.7-70.5
		c-19.7-5-39.1-7.9-55.5-10.7c-11.9-2.1-22.2-4.1-29.7-6.8c-1.3-0.5-2.5-1.1-3.7-1.7c22.4-2.8,49.5-18.6,73.6-34.1
		c9-5.8,16-11.7,21.6-16.4c2.9-2.4,5.7-4.7,8-6.3c2.3-1.6,4.2-2.6,5.1-2.5c0.8,0,1.5,0.3,2.2,1.1c2.2,2.4,3.5,9,3.5,16.1
		c0,5.8-0.8,12-2.2,16.9l-0.8,2.8l2.4-1.6c19.1-12.3,28.3-30.9,28.3-48.3c0-17.5-9.7-28.4-15.9-35.4c-1-1.1-2.1-2.4-3-3.5
		c-0.7-0.9-1.3-1.8-1.5-2.1c0.1-0.4,0.7-1.4,1.7-2.1c4-3,10.8-4.9,18.7-4.8c4,0,8.3,0.5,12.7,1.5l3,0.7l-1.9-2.4
		c-16.4-21.1-35.3-27.2-52.1-27.2c-13.2,0-25.2,3.7-34,6.6c-4.3,1.4-10.2,3.2-12.7,3.2c-0.3,0-0.6,0-0.7-0.1
		c0.1-3.1,2.3-8.3,6.5-13.8c4.3-5.6,10.7-11.7,18.8-16.6l3-1.8l-3.5-0.2c-1.5-0.1-3-0.2-4.6-0.2c-33.8,0-77.4,24.6-109.6,41.2
		C79.4,99.2,37.3,123.6,24.6,116z"/>
</g>
</svg>
